# xmcd
# 
# Track frame offsets:
#     150
#     17127
#     35312
# 
# Disc length: 695
# 
# Revision: 1
# Processed by: cddbd v1.5.2PL0 Copyright (c) Steve Scherf et al.
# Submitted via: fre:ac v1.0.31
# 
DISCID=1902b503
DTITLE=ALI PROJECT - コッペリアの柩 HYPER REMIX＆ORIGINAL ALBUM VERSION
DYEAR=0
DGENRE=JPop
TTITLE0=コッペリアの柩(Hyper Remix Version)
TTITLE1=コッペリアの柩(Orijinal Album Version)
TTITLE2=コッペリアの柩(Hyper Remix Version)[playback]
EXTD=
EXTT0=
EXTT1=
EXTT2=
PLAYORDER=
